HIERARCHY
ROOT Hips
{
  OFFSET 0 0 0
  CHANNELS 6 Xposition Yposition Zposition Zrotation Yrotation Xrotation
  JOINT LeftThigh
  {
    OFFSET 8.409438 0 -5.917753
    CHANNELS 3 Zrotation Yrotation Xrotation
    JOINT LeftLeg
    {
      OFFSET 0 0 -42.358652
      CHANNELS 3 Zrotation Yrotation Xrotation
      JOINT LeftFoot
      {
        OFFSET 0 0 -39.357303
        CHANNELS 3 Zrotation Yrotation Xrotation
      }
    }
  }
  JOINT RightThigh
  {
    OFFSET -8.409438 0 -5.917753
    CHANNELS 3 Zrotation Yrotation Xrotation
    JOINT RightLeg
    {
      OFFSET 0 0 -42.358652
      CHANNELS 3 Zrotation Yrotation Xrotation
      JOINT RightFoot
      {
        OFFSET 0 0 -39.357303
        CHANNELS 3 Zrotation Yrotation Xrotation
      }
    }
  }
  JOINT SpineLow
  {
    OFFSET 0 0 4.719101
    CHANNELS 3 Zrotation Yrotation Xrotation
    JOINT SpineMid
    {
      OFFSET 0 0 12.899191
      CHANNELS 3 Zrotation Yrotation Xrotation
      JOINT Chest
      {
        OFFSET 0 0 12.899191
        CHANNELS 3 Zrotation Yrotation Xrotation
        JOINT LeftShoulder
        {
          OFFSET 7.550562 1.41573 9.438202
          CHANNELS 3 Zrotation Yrotation Xrotation
          JOINT LeftArm
          {
            OFFSET 9.155056 0 4.247191
            CHANNELS 3 Zrotation Yrotation Xrotation
            JOINT LeftForearm
            {
              OFFSET 0 0 25.771955
              CHANNELS 3 Zrotation Yrotation Xrotation
              JOINT LeftHand
              {
                OFFSET 0 0 25.197169
                CHANNELS 3 Zrotation Yrotation Xrotation
              }
            }
          }
        }
        JOINT RightShoulder
        {
          OFFSET -7.550562 1.41573 9.438202
          CHANNELS 3 Zrotation Yrotation Xrotation
          JOINT RightArm
          {
            OFFSET -9.155056 0 4.247191
            CHANNELS 3 Zrotation Yrotation Xrotation
            JOINT RightForearm
            {
              OFFSET 0 0 -25.771955
              CHANNELS 3 Zrotation Yrotation Xrotation
              JOINT RightHand
              {
                OFFSET 0 0 -25.197169
                CHANNELS 3 Zrotation Yrotation Xrotation
              }
            }
          }
        }
        JOINT Neck
        {
          OFFSET 0 0 15.101124
          CHANNELS 3 Zrotation Yrotation Xrotation
          JOINT Head
          {
            OFFSET 0 0 11.325843
            CHANNELS 3 Zrotation Yrotation Xrotation
            End Site
            {
              OFFSET 0 0 14.157303
            }
          }
        }
      }
    }
  }
}
MOTION
Frames: 6
Frame Time: 0.0
0.0  101.685394  0.0  -0.137934  16.463636  -99.177922  7.797989  -23.946682  2.387123  -14.361408  16.130458  19.324358  4.932947  4.996107  5.461229  -20.828534  12.272797  -2.52541  -0.767232  4.221313  22.845166  2.374364  2.814324  -0.995006  0.265433  -0.465951  2.908816  0.668417  -1.303393  7.94668  0.668417  -1.303393  7.946681  1.057638  20.670123  7.615466  136.576023  22.843144  168.661512  -24.972188  21.503423  94.903581  32.751043  -37.03  4.254471  21.105495  -8.130619  18.488193  74.460684  49.155951  35.779634  3.320831  6.015718  -14.739636  67.026127  -26.045122  22.889164  -4.483783  0.24435  -1.150446  -3.362387  0.191716  -0.861096  
0.0  101.685394  0.0  -0.176093  16.21743  -99.25226  7.711703  -23.987255  2.465054  -14.216252  16.129476  19.455978  5.045873  5.032959  5.506176  -20.650296  12.221136  -2.508239  -0.723835  4.198913  22.921254  2.407667  2.826543  -0.977664  0.278254  -0.473113  2.90862  0.702554  -1.324474  7.945836  0.702554  -1.324474  7.945835  1.106836  20.615551  7.622631  136.649891  22.809313  168.649241  -24.896086  21.429794  94.910537  32.947064  -37.070927  3.995605  21.218681  -8.16652  18.551648  74.380025  49.254839  35.755785  3.696182  6.245365  -14.762016  67.375255  -26.102509  22.363395  -4.393916  0.241648  -1.143434  -3.294994  0.189469  -0.855889  
0.0  101.685394  0.0  -0.218659  15.931025  -99.339516  7.732943  -24.039895  2.567102  -14.063289  16.133218  19.631959  5.070054  5.031691  5.480394  -20.207592  12.156055  -2.388495  -0.717281  4.143613  22.996168  2.308067  2.823664  -0.986705  0.318416  -0.475287  2.91576  0.811757  -1.335308  7.964516  0.811757  -1.335308  7.964516  1.012337  20.473634  7.574848  136.708815  22.731123  168.628082  -24.810734  21.515635  94.921666  33.097544  -37.122193  3.817066  21.285101  -8.266996  18.579892  74.312788  49.396738  35.82555  4.041275  6.474881  -14.88139  67.585093  -26.152197  22.044207  -4.44408  0.19388  -1.166833  -3.332701  0.153906  -0.873769  
0.0  101.685394  0.0  -0.250129  15.698225  -99.416324  7.717998  -24.067471  2.634166  -13.970222  16.111234  19.762274  5.15191  5.062476  5.518649  -20.045206  12.123205  -2.351455  -0.660141  4.113841  23.040489  2.330965  2.8242  -0.969709  0.32997  -0.483121  2.917077  0.842321  -1.358091  7.967806  0.842321  -1.358091  7.967806  1.018421  20.418476  7.574306  136.729459  22.619057  168.641295  -24.791223  21.59526  94.886256  33.198107  -37.228904  3.608925  21.353949  -8.321484  18.603525  74.406609  49.454636  35.93583  4.217129  6.65884  -14.998097  67.844304  -26.173906  21.93122  -4.375831  0.185817  -1.153547  -3.281534  0.147632  -0.863882  
0.0  101.685394  0.0  -0.296298  15.441445  -99.502209  7.858714  -24.152495  2.766712  -13.84267  16.083426  19.924147  5.090236  5.054859  5.464344  -19.727533  12.054356  -2.246672  -0.593509  4.057883  23.092821  2.231815  2.820021  -0.979177  0.367772  -0.486278  2.923767  0.94497  -1.371347  7.985268  0.94497  -1.371347  7.985268  0.836718  20.26783  7.514302  136.735208  22.432233  168.662581  -24.864938  21.710747  94.837633  33.234062  -37.306114  3.537396  21.332223  -8.445703  18.609057  74.660352  49.539013  36.186218  4.301973  6.832948  -15.143826  67.993358  -26.215674  21.883746  -4.432529  0.127331  -1.160575  -3.324168  0.103923  -0.869561  
0.0  101.685394  0.0  -0.336663  15.239589  -99.57893  7.870961  -24.190228  2.831109  -13.775177  16.051203  20.035646  5.144467  5.084401  5.49418  -19.640449  12.027055  -2.204313  -0.502913  4.020289  23.112903  2.260609  2.820971  -0.962247  0.367592  -0.49986  2.921249  0.942899  -1.408352  7.978241  0.942899  -1.408353  7.978242  0.86673  20.255806  7.550811  136.717363  22.274974  168.691262  -24.916824  21.823015  94.779499  33.275011  -37.439703  3.419871  21.387901  -8.491203  18.68169  74.978616  49.571725  36.433026  4.323385  7.007539  -15.268182  68.198674  -26.252446  21.868578  -4.350721  0.148755  -1.122765  -3.262779  0.119567  -0.841065  
